<?xml version="1.0" encoding="UTF-8" standalone="no"?>
<!DOCTYPE svg PUBLIC "-//W3C//DTD SVG 1.1//EN" "http://www.w3.org/Graphics/SVG/1.1/DTD/svg11.dtd">
<svg width="100%" height="100%" viewBox="0 0 1024 1024" version="1.1" xmlns="http://www.w3.org/2000/svg" xmlns:xlink="http://www.w3.org/1999/xlink" xml:space="preserve" xmlns:serif="http://www.serif.com/" style="fill-rule:evenodd;clip-rule:evenodd;stroke-linecap:round;stroke-linejoin:round;stroke-miterlimit:1.5;">
    <g id="Logo" transform="matrix(2,0,0,1,0,0)">
        <rect x="0" y="0" width="512" height="1024" style="fill:none;"/>
        <g id="Backups">
        </g>
        <g id="Logo1" serif:id="Logo" transform="matrix(0.810185,0,0,0.810185,48.5926,50.4727)">
            <g id="Shadow" transform="matrix(1,0,0,1,0,3)">
                <g id="Wires_Inactive" transform="matrix(1,0,0,1.74046,-84.5,-681.916)">
                    <path d="M204,916.952L204,830.528C210.618,837.429 217.632,843.835 225,849.697L225,916.952L204,916.952ZM240,916.952L240,860.552C246.767,864.989 253.776,868.991 261,872.526L261,916.952L240,916.952ZM276,916.952L276,879.071C282.845,881.705 289.853,883.932 297,885.725L297,916.952L276,916.952ZM312,916.952L312,888.814C318.895,889.928 325.902,890.644 333,890.94L333,916.952L312,916.952ZM348,916.952L348,890.94C355.098,890.644 362.105,889.928 369,888.814L369,916.952L348,916.952ZM384,916.952L384,885.725C391.147,883.932 398.155,881.705 405,879.071L405,916.952L384,916.952ZM420,916.952L420,872.526C427.224,868.991 434.233,864.989 441,860.552L441,916.952L420,916.952ZM456,916.952L456,849.697C463.368,843.835 470.382,837.429 477,830.528L477,916.952L456,916.952Z" style="fill:rgb(20,20,20);fill-opacity:0.17;"/>
                </g>
                <g id="Wires_Active">
                    <g>
                        <g transform="matrix(1,0,0,1,-106.25,175)">
                            <path d="M222.267,472.34L222.267,418L250,418L250,536.735C239.459,517.73 230.128,496.092 222.267,472.34ZM258.383,550.89L258.383,337L286.117,337L286.117,586.486C276.271,576.429 266.987,564.484 258.383,550.89ZM294.383,594.367L294.383,253.316L322.117,253.316L322.117,613.321C312.522,608.602 303.251,602.231 294.383,594.367ZM330.383,616.943L330.383,176.457L358.117,176.457L358.117,622.9C348.658,622.442 339.393,620.414 330.383,616.943ZM366.383,622.9L366.383,176.165L394.117,176.165L394.117,616.943C385.107,620.414 375.842,622.442 366.383,622.9ZM402.367,613.329L402.367,254.494L430.1,254.494L430.1,594.382C421.232,602.244 411.961,608.613 402.367,613.329ZM438.35,586.52L438.35,337L466.083,337L466.083,550.943C457.479,564.531 448.195,576.47 438.35,586.52ZM474.333,537.036L474.333,418.292L502.066,418.292L502.066,472.844C494.199,496.523 484.868,518.093 474.333,537.036Z" style="fill:rgb(20,20,20);fill-opacity:0.17;"/>
                        </g>
                        <g>
                            <g>
                                <g transform="matrix(0.413071,-0.782882,0.628709,1.3269,-340.335,8.89278)">
                                    <rect x="311" y="462.5" width="48.733" height="128.547" style="fill:rgb(20,20,20);fill-opacity:0.17;"/>
                                </g>
                                <g transform="matrix(0.413071,-0.782882,0.712176,1.50306,-353.866,-178.054)">
                                    <rect x="311" y="462.5" width="48.733" height="128.547" style="fill:rgb(20,20,20);fill-opacity:0.17;"/>
                                </g>
                                <g transform="matrix(0.413071,-0.782882,0.440493,0.929667,-265.09,325.505)">
                                    <rect x="311" y="462.5" width="48.733" height="128.547" style="fill:rgb(20,20,20);fill-opacity:0.17;"/>
                                </g>
                            </g>
                            <g transform="matrix(-1,0,0,1,511.262,0)">
                                <g transform="matrix(0.413071,-0.782882,0.628709,1.3269,-341.335,8.89278)">
                                    <rect x="311" y="462.5" width="48.733" height="128.547" style="fill:rgb(20,20,20);fill-opacity:0.17;"/>
                                </g>
                                <g transform="matrix(0.413071,-0.782882,0.712176,1.50306,-354.866,-178.054)">
                                    <rect x="311" y="462.5" width="48.733" height="128.547" style="fill:rgb(20,20,20);fill-opacity:0.17;"/>
                                </g>
                                <g transform="matrix(0.413071,-0.782882,0.440493,0.929667,-266.09,325.505)">
                                    <rect x="311" y="462.5" width="48.733" height="128.547" style="fill:rgb(20,20,20);fill-opacity:0.17;"/>
                                </g>
                            </g>
                        </g>
                    </g>
                    <g>
                        <g transform="matrix(0.572661,0,0,0.908423,-29.3398,48.5104)">
                            <rect x="376.267" y="529.722" width="55.05" height="98.278" style="fill:rgb(20,20,20);fill-opacity:0.17;"/>
                        </g>
                        <g transform="matrix(0.572661,0,0,0.908423,42.6602,104.51)">
                            <rect x="376.267" y="529.722" width="55.05" height="98.278" style="fill:rgb(20,20,20);fill-opacity:0.17;"/>
                        </g>
                        <g transform="matrix(0.414821,0.789593,-0.313137,0.658038,396.64,-254.428)">
                            <rect x="376.267" y="529.722" width="55.05" height="98.278" style="fill:rgb(20,20,20);fill-opacity:0.17;"/>
                        </g>
                        <g transform="matrix(-0.414821,0.789593,0.259052,0.544383,97.3787,-135.761)">
                            <rect x="376.267" y="529.722" width="55.05" height="98.278" style="fill:rgb(20,20,20);fill-opacity:0.17;"/>
                        </g>
                    </g>
                    <g transform="matrix(0.648217,0,0,0.699993,-66.5947,103.165)">
                        <rect x="420" y="235.482" width="155.733" height="155.733" style="fill:rgb(20,20,20);fill-opacity:0.17;"/>
                    </g>
                </g>
                <g id="Frame">
                    <g transform="matrix(0.484505,0,0,0.969011,43.5444,43.4648)">
                        <path d="M438.5,15C670.028,15 858,202.972 858,434.5C858,666.028 670.028,854 438.5,854C206.972,854 19,666.028 19,434.5C19,202.972 206.972,15 438.5,15ZM438.5,88.271C247.411,88.271 92.271,243.411 92.271,434.5C92.271,625.589 247.411,780.729 438.5,780.729C629.589,780.729 784.729,625.589 784.729,434.5C784.729,243.411 629.589,88.271 438.5,88.271Z" style="fill:rgb(20,20,20);fill-opacity:0.17;"/>
                    </g>
                    <g transform="matrix(0.484505,0,0,0.969011,43.5444,38.4648)">
                        <path d="M438.5,15C670.028,15 858,202.972 858,434.5C858,666.028 670.028,854 438.5,854C206.972,854 19,666.028 19,434.5C19,202.972 206.972,15 438.5,15ZM438.5,88.271C247.411,88.271 92.271,243.411 92.271,434.5C92.271,625.589 247.411,780.729 438.5,780.729C629.589,780.729 784.729,625.589 784.729,434.5C784.729,243.411 629.589,88.271 438.5,88.271Z" style="fill:rgb(20,20,20);fill-opacity:0.17;"/>
                    </g>
                    <g transform="matrix(0.484505,0,0,0.969011,43.5444,41.4648)">
                        <path d="M438.5,15C670.028,15 858,202.972 858,434.5C858,666.028 670.028,854 438.5,854C206.972,854 19,666.028 19,434.5C19,202.972 206.972,15 438.5,15ZM438.5,88.271C247.411,88.271 92.271,243.411 92.271,434.5C92.271,625.589 247.411,780.729 438.5,780.729C629.589,780.729 784.729,625.589 784.729,434.5C784.729,243.411 629.589,88.271 438.5,88.271Z" style="fill:rgb(20,20,20);fill-opacity:0.17;"/>
                    </g>
                </g>
            </g>
            <g id="Color">
                <g id="Wires_Inactive1" serif:id="Wires_Inactive" transform="matrix(1,0,0,1.74046,-84.5,-681.916)">
                    <path d="M204,916.952L204,830.528C210.618,837.429 217.632,843.835 225,849.697L225,916.952L204,916.952ZM240,916.952L240,860.552C246.767,864.989 253.776,868.991 261,872.526L261,916.952L240,916.952ZM276,916.952L276,879.071C282.845,881.705 289.853,883.932 297,885.725L297,916.952L276,916.952ZM312,916.952L312,888.814C318.895,889.928 325.902,890.644 333,890.94L333,916.952L312,916.952ZM348,916.952L348,890.94C355.098,890.644 362.105,889.928 369,888.814L369,916.952L348,916.952ZM384,916.952L384,885.725C391.147,883.932 398.155,881.705 405,879.071L405,916.952L384,916.952ZM420,916.952L420,872.526C427.224,868.991 434.233,864.989 441,860.552L441,916.952L420,916.952ZM456,916.952L456,849.697C463.368,843.835 470.382,837.429 477,830.528L477,916.952L456,916.952Z" style="fill:url(#_Linear1);"/>
                </g>
                <g id="Wires_Active1" serif:id="Wires_Active">
                    <g>
                        <g transform="matrix(1,0,0,1,-106.25,175)">
                            <path d="M222.267,472.34L222.267,418L250,418L250,536.735C239.459,517.73 230.128,496.092 222.267,472.34ZM258.383,550.89L258.383,337L286.117,337L286.117,586.486C276.271,576.429 266.987,564.484 258.383,550.89ZM294.383,594.367L294.383,253.316L322.117,253.316L322.117,613.321C312.522,608.602 303.251,602.231 294.383,594.367ZM330.383,616.943L330.383,176.457L358.117,176.457L358.117,622.9C348.658,622.442 339.393,620.414 330.383,616.943ZM366.383,622.9L366.383,176.165L394.117,176.165L394.117,616.943C385.107,620.414 375.842,622.442 366.383,622.9ZM402.367,613.329L402.367,254.494L430.1,254.494L430.1,594.382C421.232,602.244 411.961,608.613 402.367,613.329ZM438.35,586.52L438.35,337L466.083,337L466.083,550.943C457.479,564.531 448.195,576.47 438.35,586.52ZM474.333,537.036L474.333,418.292L502.066,418.292L502.066,472.844C494.199,496.523 484.868,518.093 474.333,537.036Z" style="fill:url(#_Linear2);"/>
                        </g>
                        <g>
                            <g>
                                <g transform="matrix(0.413071,-0.782882,0.628709,1.3269,-340.335,8.89278)">
                                    <rect x="311" y="462.5" width="48.733" height="128.547" style="fill:rgb(255,127,0);"/>
                                </g>
                                <g transform="matrix(0.413071,-0.782882,0.712176,1.50306,-353.866,-178.054)">
                                    <rect x="311" y="462.5" width="48.733" height="128.547" style="fill:rgb(255,127,0);"/>
                                </g>
                                <g transform="matrix(0.413071,-0.782882,0.440493,0.929667,-265.09,325.505)">
                                    <rect x="311" y="462.5" width="48.733" height="128.547" style="fill:rgb(255,127,0);"/>
                                </g>
                            </g>
                            <g transform="matrix(-1,0,0,1,511.262,0)">
                                <g transform="matrix(0.413071,-0.782882,0.628709,1.3269,-341.335,8.89278)">
                                    <rect x="311" y="462.5" width="48.733" height="128.547" style="fill:rgb(255,127,0);"/>
                                </g>
                                <g transform="matrix(0.413071,-0.782882,0.712176,1.50306,-354.866,-178.054)">
                                    <rect x="311" y="462.5" width="48.733" height="128.547" style="fill:rgb(255,127,0);"/>
                                </g>
                                <g transform="matrix(0.413071,-0.782882,0.440493,0.929667,-266.09,325.505)">
                                    <rect x="311" y="462.5" width="48.733" height="128.547" style="fill:rgb(255,127,0);"/>
                                </g>
                            </g>
                        </g>
                    </g>
                    <g>
                        <g transform="matrix(0.572661,0,0,0.908423,-29.3398,48.5104)">
                            <rect x="376.267" y="529.722" width="55.05" height="98.278" style="fill:rgb(255,206,40);"/>
                        </g>
                        <g transform="matrix(0.572661,0,0,0.908423,42.6602,104.51)">
                            <rect x="376.267" y="529.722" width="55.05" height="98.278" style="fill:rgb(255,206,40);"/>
                        </g>
                        <g transform="matrix(0.414821,0.789593,-0.313137,0.658038,396.64,-254.428)">
                            <rect x="376.267" y="529.722" width="55.05" height="98.278" style="fill:rgb(255,206,40);"/>
                        </g>
                        <g transform="matrix(-0.414821,0.789593,0.259052,0.544383,97.3787,-135.761)">
                            <rect x="376.267" y="529.722" width="55.05" height="98.278" style="fill:rgb(255,206,40);"/>
                        </g>
                    </g>
                    <g transform="matrix(0.648217,0,0,0.699993,-66.5947,103.165)">
                        <rect x="420" y="235.482" width="155.733" height="155.733" style="fill:rgb(253,126,1);"/>
                    </g>
                </g>
                <g id="Frame1" serif:id="Frame">
                    <g transform="matrix(0.484505,0,0,0.969011,43.5444,43.4648)">
                        <path d="M438.5,15C670.028,15 858,202.972 858,434.5C858,666.028 670.028,854 438.5,854C206.972,854 19,666.028 19,434.5C19,202.972 206.972,15 438.5,15ZM438.5,88.271C247.411,88.271 92.271,243.411 92.271,434.5C92.271,625.589 247.411,780.729 438.5,780.729C629.589,780.729 784.729,625.589 784.729,434.5C784.729,243.411 629.589,88.271 438.5,88.271Z" style="fill:rgb(53,53,53);"/>
                    </g>
                    <g transform="matrix(0.484505,0,0,0.969011,43.5444,38.4648)">
                        <path d="M438.5,15C670.028,15 858,202.972 858,434.5C858,666.028 670.028,854 438.5,854C206.972,854 19,666.028 19,434.5C19,202.972 206.972,15 438.5,15ZM438.5,88.271C247.411,88.271 92.271,243.411 92.271,434.5C92.271,625.589 247.411,780.729 438.5,780.729C629.589,780.729 784.729,625.589 784.729,434.5C784.729,243.411 629.589,88.271 438.5,88.271Z" style="fill:rgb(151,151,151);"/>
                    </g>
                    <g transform="matrix(0.484505,0,0,0.969011,43.5444,41.4648)">
                        <path d="M438.5,15C670.028,15 858,202.972 858,434.5C858,666.028 670.028,854 438.5,854C206.972,854 19,666.028 19,434.5C19,202.972 206.972,15 438.5,15ZM438.5,88.271C247.411,88.271 92.271,243.411 92.271,434.5C92.271,625.589 247.411,780.729 438.5,780.729C629.589,780.729 784.729,625.589 784.729,434.5C784.729,243.411 629.589,88.271 438.5,88.271Z" style="fill:url(#_Radial3);"/>
                    </g>
                </g>
                <g id="Glass-Shadow" serif:id="Glass Shadow" transform="matrix(0.400767,0,0,0.801534,80.2638,113.39)">
                    <path d="M426.818,15.16C430.699,15.054 434.593,15 438.5,15C670.028,15 858,202.972 858,434.5C858,666.028 670.028,854 438.5,854C206.972,854 19,666.028 19,434.5C19,431.148 19.039,427.805 19.118,424.472C24.301,640.509 199.927,814.29 415.505,814.29C634.342,814.29 812.01,635.215 812.01,414.645C812.01,197.888 640.432,21.204 426.818,15.16Z" style="fill:rgb(20,20,20);fill-opacity:0.05;"/>
                </g>
                <g transform="matrix(0.204795,0,0,0.409591,117.313,191.112)">
                    <path d="M592.575,44.243C307.779,144.893 140.43,300.927 48.243,588.575C40.472,612.825 19,488.885 19,434.5C19,202.972 206.972,15 438.5,15C492.885,15 616.238,35.88 592.575,44.243Z" style="fill:url(#_Linear4);stroke:url(#_Linear5);stroke-width:3.01px;"/>
                </g>
            </g>
            <g transform="matrix(0.621599,0,0,1.23429,-543.84,-1259.5)">
                <g transform="matrix(83.3333,0,0,83.3333,884.245,1899.79)">
                    <path d="M0.447,-0.218C0.46,-0.197 0.472,-0.176 0.484,-0.156C0.495,-0.135 0.504,-0.118 0.511,-0.103L0.513,-0.103C0.51,-0.126 0.507,-0.148 0.507,-0.171C0.506,-0.193 0.505,-0.218 0.505,-0.245L0.505,-0.674L0.581,-0.674L0.581,-0L0.5,-0L0.216,-0.456C0.203,-0.477 0.191,-0.497 0.18,-0.518C0.169,-0.539 0.159,-0.556 0.152,-0.571L0.15,-0.571C0.153,-0.548 0.156,-0.526 0.157,-0.504C0.158,-0.481 0.158,-0.456 0.158,-0.429L0.158,-0L0.082,-0L0.082,-0.674L0.163,-0.674L0.447,-0.218Z" style="fill:rgb(96,96,96);fill-rule:nonzero;"/>
                </g>
                <g transform="matrix(83.3333,0,0,83.3333,939.495,1899.79)">
                    <path d="M0.082,-0.674L0.489,-0.674L0.489,-0.605L0.158,-0.605L0.158,-0.383L0.469,-0.383L0.469,-0.313L0.158,-0.313L0.158,-0.069L0.495,-0.069L0.495,-0L0.082,-0L0.082,-0.674Z" style="fill:rgb(96,96,96);fill-rule:nonzero;"/>
                </g>
                <g transform="matrix(83.3333,0,0,83.3333,984.912,1899.79)">
                    <path d="M0.294,-0.604L0.294,-0L0.218,-0L0.218,-0.604L0.012,-0.603L0.012,-0.674L0.5,-0.674L0.5,-0.603L0.294,-0.604Z" style="fill:rgb(96,96,96);fill-rule:nonzero;"/>
                </g>
                <g transform="matrix(83.3333,0,0,83.3333,1028.08,1899.79)">
                    <path d="M0.19,-0L0.031,-0.674L0.107,-0.674L0.196,-0.293C0.205,-0.256 0.212,-0.22 0.218,-0.185C0.223,-0.15 0.228,-0.116 0.231,-0.084L0.233,-0.084C0.238,-0.117 0.245,-0.15 0.253,-0.183C0.26,-0.216 0.27,-0.251 0.281,-0.288L0.399,-0.674L0.478,-0.674L0.596,-0.288C0.607,-0.251 0.617,-0.216 0.625,-0.183C0.633,-0.15 0.64,-0.117 0.645,-0.084L0.647,-0.084C0.65,-0.116 0.654,-0.15 0.66,-0.185C0.666,-0.22 0.673,-0.256 0.682,-0.293L0.77,-0.674L0.847,-0.674L0.688,-0L0.612,-0L0.478,-0.438C0.471,-0.461 0.463,-0.488 0.456,-0.517C0.449,-0.546 0.443,-0.571 0.439,-0.592L0.437,-0.592C0.433,-0.57 0.428,-0.545 0.421,-0.516C0.413,-0.487 0.406,-0.461 0.399,-0.438L0.265,-0L0.19,-0Z" style="fill:rgb(96,96,96);fill-rule:nonzero;"/>
                </g>
                <g transform="matrix(83.3333,0,0,83.3333,1100.91,1899.79)">
                    <path d="M0.344,-0.054C0.381,-0.054 0.414,-0.061 0.442,-0.074C0.469,-0.087 0.492,-0.105 0.511,-0.13C0.53,-0.155 0.544,-0.184 0.553,-0.219C0.562,-0.254 0.566,-0.293 0.566,-0.337C0.566,-0.381 0.562,-0.42 0.553,-0.455C0.544,-0.49 0.53,-0.519 0.511,-0.544C0.492,-0.569 0.469,-0.588 0.442,-0.601C0.414,-0.614 0.381,-0.62 0.344,-0.62C0.307,-0.62 0.274,-0.614 0.246,-0.601C0.218,-0.588 0.195,-0.569 0.176,-0.544C0.157,-0.519 0.143,-0.49 0.135,-0.455C0.126,-0.42 0.121,-0.381 0.121,-0.337C0.121,-0.293 0.126,-0.254 0.135,-0.219C0.143,-0.184 0.157,-0.155 0.176,-0.13C0.195,-0.105 0.218,-0.087 0.246,-0.074C0.274,-0.061 0.307,-0.054 0.344,-0.054ZM0.344,0.009C0.293,0.009 0.248,0 0.211,-0.017C0.174,-0.034 0.143,-0.058 0.118,-0.09C0.093,-0.121 0.075,-0.157 0.064,-0.2C0.052,-0.242 0.046,-0.288 0.046,-0.337C0.046,-0.386 0.052,-0.432 0.064,-0.475C0.075,-0.517 0.093,-0.554 0.118,-0.585C0.143,-0.616 0.174,-0.64 0.211,-0.657C0.248,-0.674 0.293,-0.683 0.344,-0.683C0.395,-0.683 0.44,-0.674 0.477,-0.657C0.514,-0.64 0.545,-0.616 0.57,-0.585C0.595,-0.554 0.613,-0.517 0.625,-0.475C0.636,-0.432 0.642,-0.386 0.642,-0.337C0.642,-0.288 0.636,-0.242 0.625,-0.2C0.613,-0.157 0.595,-0.121 0.57,-0.09C0.545,-0.058 0.514,-0.034 0.477,-0.017C0.44,0 0.395,0.009 0.344,0.009Z" style="fill:rgb(96,96,96);fill-rule:nonzero;"/>
                </g>
                <g transform="matrix(83.3333,0,0,83.3333,1158.24,1899.79)">
                    <path d="M0.542,-0.474C0.542,-0.425 0.528,-0.383 0.5,-0.348C0.471,-0.313 0.433,-0.289 0.384,-0.277L0.547,-0L0.464,-0L0.306,-0.269L0.157,-0.269L0.157,-0L0.082,-0L0.082,-0.674L0.321,-0.674C0.356,-0.674 0.387,-0.669 0.415,-0.659C0.442,-0.648 0.465,-0.634 0.484,-0.616C0.503,-0.598 0.517,-0.577 0.527,-0.553C0.537,-0.528 0.542,-0.502 0.542,-0.474ZM0.466,-0.474C0.466,-0.514 0.454,-0.546 0.429,-0.569C0.404,-0.592 0.368,-0.603 0.321,-0.603L0.157,-0.603L0.157,-0.339L0.315,-0.339C0.362,-0.339 0.399,-0.351 0.426,-0.375C0.453,-0.399 0.466,-0.432 0.466,-0.474Z" style="fill:rgb(96,96,96);fill-rule:nonzero;"/>
                </g>
                <g transform="matrix(83.3333,0,0,83.3333,1207.16,1899.79)">
                    <path d="M0.285,-0.359L0.586,-0L0.493,-0L0.21,-0.338L0.21,-0.375L0.485,-0.674L0.575,-0.674L0.285,-0.359ZM0.158,-0L0.082,-0L0.082,-0.674L0.158,-0.674L0.158,-0Z" style="fill:rgb(96,96,96);fill-rule:nonzero;"/>
                </g>
                <g transform="matrix(83.3333,0,0,83.3333,1278.49,1899.79)">
                    <rect x="0.084" y="-0.674" width="0.076" height="0.674" style="fill:rgb(96,96,96);fill-rule:nonzero;"/>
                </g>
                <g transform="matrix(83.3333,0,0,83.3333,1298.83,1899.79)">
                    <path d="M0.447,-0.218C0.46,-0.197 0.472,-0.176 0.484,-0.156C0.495,-0.135 0.504,-0.118 0.511,-0.103L0.513,-0.103C0.51,-0.126 0.507,-0.148 0.507,-0.171C0.506,-0.193 0.505,-0.218 0.505,-0.245L0.505,-0.674L0.581,-0.674L0.581,-0L0.5,-0L0.216,-0.456C0.203,-0.477 0.191,-0.497 0.18,-0.518C0.169,-0.539 0.159,-0.556 0.152,-0.571L0.15,-0.571C0.153,-0.548 0.156,-0.526 0.157,-0.504C0.158,-0.481 0.158,-0.456 0.158,-0.429L0.158,-0L0.082,-0L0.082,-0.674L0.163,-0.674L0.447,-0.218Z" style="fill:rgb(96,96,96);fill-rule:nonzero;"/>
                </g>
                <g transform="matrix(83.3333,0,0,83.3333,1354.08,1899.79)">
                    <path d="M0.248,0.009C0.2,0.009 0.161,0.005 0.132,-0.002C0.102,-0.009 0.076,-0.019 0.055,-0.03L0.075,-0.092C0.094,-0.083 0.118,-0.075 0.145,-0.068C0.172,-0.061 0.204,-0.058 0.239,-0.058C0.263,-0.058 0.285,-0.06 0.306,-0.065C0.326,-0.07 0.343,-0.077 0.358,-0.087C0.373,-0.096 0.384,-0.109 0.393,-0.124C0.401,-0.139 0.405,-0.158 0.405,-0.179C0.405,-0.2 0.401,-0.218 0.392,-0.232C0.383,-0.246 0.372,-0.258 0.357,-0.268C0.341,-0.278 0.324,-0.287 0.305,-0.294C0.286,-0.301 0.265,-0.307 0.244,-0.314C0.223,-0.321 0.201,-0.329 0.179,-0.338C0.157,-0.347 0.137,-0.359 0.118,-0.374C0.099,-0.388 0.084,-0.406 0.073,-0.427C0.061,-0.448 0.055,-0.475 0.055,-0.506C0.055,-0.531 0.059,-0.555 0.068,-0.577C0.076,-0.598 0.089,-0.617 0.107,-0.633C0.125,-0.648 0.148,-0.661 0.176,-0.67C0.204,-0.679 0.238,-0.683 0.277,-0.683C0.31,-0.683 0.341,-0.68 0.368,-0.674C0.395,-0.667 0.42,-0.658 0.442,-0.647L0.422,-0.585C0.403,-0.594 0.38,-0.602 0.355,-0.608C0.33,-0.613 0.304,-0.616 0.277,-0.616C0.224,-0.616 0.186,-0.606 0.163,-0.586C0.14,-0.565 0.128,-0.539 0.128,-0.507C0.128,-0.488 0.132,-0.471 0.14,-0.458C0.148,-0.445 0.159,-0.433 0.173,-0.424C0.186,-0.414 0.202,-0.405 0.221,-0.398C0.239,-0.391 0.258,-0.384 0.279,-0.377C0.303,-0.369 0.327,-0.36 0.351,-0.351C0.374,-0.341 0.396,-0.329 0.415,-0.314C0.434,-0.299 0.449,-0.28 0.461,-0.259C0.472,-0.237 0.478,-0.21 0.478,-0.178C0.478,-0.146 0.472,-0.118 0.461,-0.095C0.45,-0.072 0.434,-0.052 0.414,-0.037C0.393,-0.022 0.369,-0.01 0.341,-0.003C0.312,0.005 0.281,0.009 0.248,0.009Z" style="fill:rgb(96,96,96);fill-rule:nonzero;"/>
                </g>
                <g transform="matrix(83.3333,0,0,83.3333,1398.08,1899.79)">
                    <path d="M0.52,-0.466C0.52,-0.435 0.515,-0.407 0.504,-0.382C0.493,-0.356 0.478,-0.334 0.459,-0.315C0.439,-0.296 0.415,-0.281 0.387,-0.27C0.359,-0.259 0.328,-0.254 0.293,-0.254L0.158,-0.254L0.158,-0L0.082,-0L0.082,-0.674L0.299,-0.674C0.334,-0.674 0.365,-0.669 0.393,-0.658C0.42,-0.647 0.443,-0.633 0.462,-0.614C0.481,-0.595 0.495,-0.573 0.505,-0.548C0.515,-0.523 0.52,-0.495 0.52,-0.466ZM0.444,-0.466C0.444,-0.509 0.432,-0.542 0.407,-0.567C0.382,-0.592 0.346,-0.604 0.299,-0.604L0.158,-0.604L0.158,-0.324L0.293,-0.324C0.34,-0.324 0.377,-0.337 0.404,-0.362C0.431,-0.387 0.444,-0.422 0.444,-0.466Z" style="fill:rgb(96,96,96);fill-rule:nonzero;"/>
                </g>
                <g transform="matrix(83.3333,0,0,83.3333,1444.74,1899.79)">
                    <path d="M0.082,-0.674L0.489,-0.674L0.489,-0.605L0.158,-0.605L0.158,-0.383L0.469,-0.383L0.469,-0.313L0.158,-0.313L0.158,-0.069L0.495,-0.069L0.495,-0L0.082,-0L0.082,-0.674Z" style="fill:rgb(96,96,96);fill-rule:nonzero;"/>
                </g>
                <g transform="matrix(83.3333,0,0,83.3333,1490.16,1899.79)">
                    <path d="M0.365,-0.615C0.288,-0.615 0.229,-0.591 0.186,-0.543C0.142,-0.495 0.121,-0.426 0.121,-0.337C0.121,-0.249 0.142,-0.181 0.185,-0.133C0.228,-0.084 0.287,-0.06 0.364,-0.06C0.419,-0.06 0.468,-0.071 0.512,-0.092L0.531,-0.028C0.507,-0.016 0.482,-0.007 0.455,-0.001C0.428,0.006 0.397,0.009 0.363,0.009C0.308,0.009 0.261,0.001 0.222,-0.016C0.182,-0.033 0.149,-0.056 0.123,-0.086C0.097,-0.116 0.078,-0.152 0.065,-0.195C0.052,-0.238 0.046,-0.285 0.046,-0.337C0.046,-0.388 0.053,-0.434 0.067,-0.477C0.081,-0.52 0.101,-0.556 0.129,-0.587C0.156,-0.617 0.189,-0.641 0.228,-0.658C0.267,-0.675 0.313,-0.683 0.364,-0.683C0.399,-0.683 0.429,-0.68 0.454,-0.675C0.479,-0.669 0.503,-0.661 0.525,-0.651L0.506,-0.587C0.465,-0.606 0.418,-0.615 0.365,-0.615Z" style="fill:rgb(96,96,96);fill-rule:nonzero;"/>
                </g>
                <g transform="matrix(83.3333,0,0,83.3333,1537.66,1899.79)">
                    <path d="M0.294,-0.604L0.294,-0L0.218,-0L0.218,-0.604L0.012,-0.603L0.012,-0.674L0.5,-0.674L0.5,-0.603L0.294,-0.604Z" style="fill:rgb(96,96,96);fill-rule:nonzero;"/>
                </g>
                <g transform="matrix(83.3333,0,0,83.3333,1579.49,1899.79)">
                    <path d="M0.344,-0.054C0.381,-0.054 0.414,-0.061 0.442,-0.074C0.469,-0.087 0.492,-0.105 0.511,-0.13C0.53,-0.155 0.544,-0.184 0.553,-0.219C0.562,-0.254 0.566,-0.293 0.566,-0.337C0.566,-0.381 0.562,-0.42 0.553,-0.455C0.544,-0.49 0.53,-0.519 0.511,-0.544C0.492,-0.569 0.469,-0.588 0.442,-0.601C0.414,-0.614 0.381,-0.62 0.344,-0.62C0.307,-0.62 0.274,-0.614 0.246,-0.601C0.218,-0.588 0.195,-0.569 0.176,-0.544C0.157,-0.519 0.143,-0.49 0.135,-0.455C0.126,-0.42 0.121,-0.381 0.121,-0.337C0.121,-0.293 0.126,-0.254 0.135,-0.219C0.143,-0.184 0.157,-0.155 0.176,-0.13C0.195,-0.105 0.218,-0.087 0.246,-0.074C0.274,-0.061 0.307,-0.054 0.344,-0.054ZM0.344,0.009C0.293,0.009 0.248,0 0.211,-0.017C0.174,-0.034 0.143,-0.058 0.118,-0.09C0.093,-0.121 0.075,-0.157 0.064,-0.2C0.052,-0.242 0.046,-0.288 0.046,-0.337C0.046,-0.386 0.052,-0.432 0.064,-0.475C0.075,-0.517 0.093,-0.554 0.118,-0.585C0.143,-0.616 0.174,-0.64 0.211,-0.657C0.248,-0.674 0.293,-0.683 0.344,-0.683C0.395,-0.683 0.44,-0.674 0.477,-0.657C0.514,-0.64 0.545,-0.616 0.57,-0.585C0.595,-0.554 0.613,-0.517 0.625,-0.475C0.636,-0.432 0.642,-0.386 0.642,-0.337C0.642,-0.288 0.636,-0.242 0.625,-0.2C0.613,-0.157 0.595,-0.121 0.57,-0.09C0.545,-0.058 0.514,-0.034 0.477,-0.017C0.44,0 0.395,0.009 0.344,0.009Z" style="fill:rgb(96,96,96);fill-rule:nonzero;"/>
                </g>
                <g transform="matrix(83.3333,0,0,83.3333,1636.83,1899.79)">
                    <path d="M0.542,-0.474C0.542,-0.425 0.528,-0.383 0.5,-0.348C0.471,-0.313 0.433,-0.289 0.384,-0.277L0.547,-0L0.464,-0L0.306,-0.269L0.157,-0.269L0.157,-0L0.082,-0L0.082,-0.674L0.321,-0.674C0.356,-0.674 0.387,-0.669 0.415,-0.659C0.442,-0.648 0.465,-0.634 0.484,-0.616C0.503,-0.598 0.517,-0.577 0.527,-0.553C0.537,-0.528 0.542,-0.502 0.542,-0.474ZM0.466,-0.474C0.466,-0.514 0.454,-0.546 0.429,-0.569C0.404,-0.592 0.368,-0.603 0.321,-0.603L0.157,-0.603L0.157,-0.339L0.315,-0.339C0.362,-0.339 0.399,-0.351 0.426,-0.375C0.453,-0.399 0.466,-0.432 0.466,-0.474Z" style="fill:rgb(96,96,96);fill-rule:nonzero;"/>
                </g>
            </g>
        </g>
    </g>
    <defs>
        <linearGradient id="_Linear1" x1="0" y1="0" x2="1" y2="0" gradientUnits="userSpaceOnUse" gradientTransform="matrix(-8.74149e-14,121.472,-54.0489,-5.13607e-14,204,830.528)"><stop offset="0" style="stop-color:rgb(0,161,255);stop-opacity:1"/><stop offset="1" style="stop-color:rgb(0,149,208);stop-opacity:1"/></linearGradient>
        <linearGradient id="_Linear2" x1="0" y1="0" x2="1" y2="0" gradientUnits="userSpaceOnUse" gradientTransform="matrix(5.60276e-15,183,-91.5,1.12055e-14,273,457)"><stop offset="0" style="stop-color:rgb(255,127,0);stop-opacity:1"/><stop offset="1" style="stop-color:rgb(242,121,0);stop-opacity:1"/></linearGradient>
        <radialGradient id="_Radial3" cx="0" cy="0" r="1" gradientUnits="userSpaceOnUse" gradientTransform="matrix(-419.5,2.37669e-13,-2.37669e-13,-419.5,438.5,434.5)"><stop offset="0" style="stop-color:rgb(21,21,21);stop-opacity:1"/><stop offset="1" style="stop-color:rgb(99,99,99);stop-opacity:1"/></radialGradient>
        <linearGradient id="_Linear4" x1="0" y1="0" x2="1" y2="0" gradientUnits="userSpaceOnUse" gradientTransform="matrix(576.555,0,0,576.683,19,303.341)"><stop offset="0" style="stop-color:rgb(248,248,248);stop-opacity:0.1"/><stop offset="1" style="stop-color:rgb(241,241,241);stop-opacity:0.4"/></linearGradient>
        <linearGradient id="_Linear5" x1="0" y1="0" x2="1" y2="0" gradientUnits="userSpaceOnUse" gradientTransform="matrix(576.555,0,0,576.683,19,303.341)"><stop offset="0" style="stop-color:rgb(237,237,237);stop-opacity:0.1"/><stop offset="1" style="stop-color:white;stop-opacity:1"/></linearGradient>
    </defs>
</svg>
