<?xml version="1.0" encoding="UTF-8" standalone="no"?>
<!DOCTYPE svg PUBLIC "-//W3C//DTD SVG 1.1//EN" "http://www.w3.org/Graphics/SVG/1.1/DTD/svg11.dtd">
<svg width="100%" height="100%" viewBox="0 0 32 32" version="1.1" xmlns="http://www.w3.org/2000/svg" xmlns:xlink="http://www.w3.org/1999/xlink" xml:space="preserve" xmlns:serif="http://www.serif.com/" style="fill-rule:evenodd;clip-rule:evenodd;stroke-linejoin:round;stroke-miterlimit:2;">
    <path d="M16,1C24.279,1 31,7.721 31,16C31,24.279 24.279,31 16,31C7.721,31 1,24.279 1,16C1,7.721 7.721,1 16,1ZM17.438,12.625L14.521,12.625L14.521,24.167L17.438,24.167L17.438,12.625ZM16,11.25C16.514,11.25 16.941,11.087 17.281,10.76C17.622,10.434 17.792,10.028 17.792,9.542C17.792,9.056 17.622,8.649 17.281,8.323C16.941,7.997 16.514,7.833 16,7.833C15.486,7.833 15.059,7.997 14.719,8.323C14.378,8.649 14.208,9.056 14.208,9.542C14.208,10.028 14.378,10.434 14.719,10.76C15.059,11.087 15.486,11.25 16,11.25Z" style="fill:rgb(168,168,168);"/>
</svg>
