<?xml version="1.0" encoding="UTF-8" standalone="no"?>
<!DOCTYPE svg PUBLIC "-//W3C//DTD SVG 1.1//EN" "http://www.w3.org/Graphics/SVG/1.1/DTD/svg11.dtd">
<svg width="100%" height="100%" viewBox="0 0 1024 1024" version="1.1" xmlns="http://www.w3.org/2000/svg" xmlns:xlink="http://www.w3.org/1999/xlink" xml:space="preserve" xmlns:serif="http://www.serif.com/" style="fill-rule:evenodd;clip-rule:evenodd;stroke-linecap:round;stroke-linejoin:round;stroke-miterlimit:1.5;">
    <rect id="Artboard1" x="0" y="0" width="1024" height="1024" style="fill:none;"/>
    <g id="Artboard11" serif:id="Artboard1">
        <g id="Background">
            <g id="Drop-Shadow" serif:id="Drop Shadow" transform="matrix(0.986826,0,0,1.0123,2851.19,272.485)">
                <path d="M-1959,-1.35L-1959,486.412C-1959,576.147 -2033.73,649 -2125.78,649L-2627.22,649C-2719.27,649 -2794,576.147 -2794,486.412L-2794,-1.35C-2794,-91.084 -2719.27,-163.938 -2627.22,-163.938L-2125.78,-163.938C-2033.73,-163.938 -1959,-91.084 -1959,-1.35Z" style="fill-opacity:0.19;"/>
            </g>
            <g id="Background1" serif:id="Background" transform="matrix(0.986826,0,0,1.0123,2857.19,266.485)">
                <path d="M-1959,-1.35L-1959,486.412C-1959,576.147 -2033.73,649 -2125.78,649L-2627.22,649C-2719.27,649 -2794,576.147 -2794,486.412L-2794,-1.35C-2794,-91.084 -2719.27,-163.938 -2627.22,-163.938L-2125.78,-163.938C-2033.73,-163.938 -1959,-91.084 -1959,-1.35Z" style="fill:url(#_Linear1);stroke:rgb(189,189,189);stroke-width:1px;"/>
            </g>
        </g>
        <g id="Logo" transform="matrix(2,0,0,1,0,0)">
            <rect x="0" y="0" width="512" height="1024" style="fill:none;"/>
            <g id="Logo1" serif:id="Logo" transform="matrix(0.724537,0,0,0.724537,70.5185,160.6)">
                <g id="Wires-Inactive">
                    <g id="Wires-Inactive-Shadow" transform="matrix(1,0,0,1.74046,-84.5,-678.916)">
                        <path d="M204,916.952L204,830.528C210.618,837.429 217.632,843.835 225,849.697L225,916.952L204,916.952ZM240,916.952L240,860.552C246.767,864.989 253.776,868.991 261,872.526L261,916.952L240,916.952ZM276,916.952L276,879.071C282.845,881.705 289.853,883.932 297,885.725L297,916.952L276,916.952ZM312,916.952L312,888.814C318.895,889.928 325.902,890.644 333,890.94L333,916.952L312,916.952ZM348,916.952L348,890.94C355.098,890.644 362.105,889.928 369,888.814L369,916.952L348,916.952ZM384,916.952L384,885.725C391.147,883.932 398.155,881.705 405,879.071L405,916.952L384,916.952ZM420,916.952L420,872.526C427.224,868.991 434.233,864.989 441,860.552L441,916.952L420,916.952ZM456,916.952L456,849.697C463.368,843.835 470.382,837.429 477,830.528L477,916.952L456,916.952Z" style="fill:rgb(20,20,20);fill-opacity:0.17;"/>
                    </g>
                    <g id="Wires-Inactive1" serif:id="Wires-Inactive" transform="matrix(1,0,0,1.74046,-84.5,-681.916)">
                        <path d="M204,916.952L204,830.528C210.618,837.429 217.632,843.835 225,849.697L225,916.952L204,916.952ZM240,916.952L240,860.552C246.767,864.989 253.776,868.991 261,872.526L261,916.952L240,916.952ZM276,916.952L276,879.071C282.845,881.705 289.853,883.932 297,885.725L297,916.952L276,916.952ZM312,916.952L312,888.814C318.895,889.928 325.902,890.644 333,890.94L333,916.952L312,916.952ZM348,916.952L348,890.94C355.098,890.644 362.105,889.928 369,888.814L369,916.952L348,916.952ZM384,916.952L384,885.725C391.147,883.932 398.155,881.705 405,879.071L405,916.952L384,916.952ZM420,916.952L420,872.526C427.224,868.991 434.233,864.989 441,860.552L441,916.952L420,916.952ZM456,916.952L456,849.697C463.368,843.835 470.382,837.429 477,830.528L477,916.952L456,916.952Z" style="fill:url(#_Linear2);"/>
                    </g>
                </g>
                <g id="Wires-Active">
                    <g id="Wires">
                        <g id="Wires-Shadow" transform="matrix(1,0,0,1,0,3)">
                            <g>
                                <g transform="matrix(1,0,0,1,-106.25,175)">
                                    <path d="M222.267,472.34L222.267,418L250,418L250,536.735C239.459,517.73 230.128,496.092 222.267,472.34ZM258.383,550.89L258.383,337L286.117,337L286.117,586.486C276.271,576.429 266.987,564.484 258.383,550.89ZM294.383,594.367L294.383,253.316L322.117,253.316L322.117,613.321C312.522,608.602 303.251,602.231 294.383,594.367ZM330.383,616.943L330.383,176.457L358.117,176.457L358.117,622.9C348.658,622.442 339.393,620.414 330.383,616.943ZM366.383,622.9L366.383,176.165L394.117,176.165L394.117,616.943C385.107,620.414 375.842,622.442 366.383,622.9ZM402.367,613.329L402.367,254.494L430.1,254.494L430.1,594.382C421.232,602.244 411.961,608.613 402.367,613.329ZM438.35,586.52L438.35,337L466.083,337L466.083,550.943C457.479,564.531 448.195,576.47 438.35,586.52ZM474.333,537.036L474.333,418.292L502.066,418.292L502.066,472.844C494.199,496.523 484.868,518.093 474.333,537.036Z" style="fill:rgb(20,20,20);fill-opacity:0.17;"/>
                                </g>
                                <g>
                                    <g>
                                        <g transform="matrix(0.413071,-0.782882,0.628709,1.3269,-340.335,8.89278)">
                                            <rect x="311" y="462.5" width="48.733" height="128.547" style="fill:rgb(20,20,20);fill-opacity:0.17;"/>
                                        </g>
                                        <g transform="matrix(0.413071,-0.782882,0.712176,1.50306,-353.866,-178.054)">
                                            <rect x="311" y="462.5" width="48.733" height="128.547" style="fill:rgb(20,20,20);fill-opacity:0.17;"/>
                                        </g>
                                        <g transform="matrix(0.413071,-0.782882,0.440493,0.929667,-265.09,325.505)">
                                            <rect x="311" y="462.5" width="48.733" height="128.547" style="fill:rgb(20,20,20);fill-opacity:0.17;"/>
                                        </g>
                                        <g transform="matrix(0.413071,-0.782882,0.712176,1.50306,-317.998,-256.346)">
                                            <rect x="311" y="462.5" width="48.733" height="128.547" style="fill:rgb(20,20,20);fill-opacity:0.17;"/>
                                        </g>
                                    </g>
                                    <g transform="matrix(-1,0,0,1,511.262,0)">
                                        <g transform="matrix(0.413071,-0.782882,0.628709,1.3269,-341.335,8.89278)">
                                            <rect x="311" y="462.5" width="48.733" height="128.547" style="fill:rgb(20,20,20);fill-opacity:0.17;"/>
                                        </g>
                                        <g transform="matrix(0.413071,-0.782882,0.712176,1.50306,-354.866,-178.054)">
                                            <rect x="311" y="462.5" width="48.733" height="128.547" style="fill:rgb(20,20,20);fill-opacity:0.17;"/>
                                        </g>
                                        <g transform="matrix(0.413071,-0.782882,0.712176,1.50306,-318.455,-256.346)">
                                            <rect x="311" y="462.5" width="48.733" height="128.547" style="fill:rgb(20,20,20);fill-opacity:0.17;"/>
                                        </g>
                                        <g transform="matrix(0.413071,-0.782882,0.440493,0.929667,-266.09,325.505)">
                                            <rect x="311" y="462.5" width="48.733" height="128.547" style="fill:rgb(20,20,20);fill-opacity:0.17;"/>
                                        </g>
                                    </g>
                                </g>
                            </g>
                        </g>
                        <g id="Straight" transform="matrix(1,0,0,1,-106.25,175)">
                            <path d="M222.267,472.34L222.267,418L250,418L250,536.735C239.459,517.73 230.128,496.092 222.267,472.34ZM258.383,550.89L258.383,337L286.117,337L286.117,586.486C276.271,576.429 266.987,564.484 258.383,550.89ZM294.383,594.367L294.383,253.316L322.117,253.316L322.117,613.321C312.522,608.602 303.251,602.231 294.383,594.367ZM330.383,616.943L330.383,176.457L358.117,176.457L358.117,622.9C348.658,622.442 339.393,620.414 330.383,616.943ZM366.383,622.9L366.383,176.165L394.117,176.165L394.117,616.943C385.107,620.414 375.842,622.442 366.383,622.9ZM402.367,613.329L402.367,254.494L430.1,254.494L430.1,594.382C421.232,602.244 411.961,608.613 402.367,613.329ZM438.35,586.52L438.35,337L466.083,337L466.083,550.943C457.479,564.531 448.195,576.47 438.35,586.52ZM474.333,537.036L474.333,418.292L502.066,418.292L502.066,472.844C494.199,496.523 484.868,518.093 474.333,537.036Z" style="fill:url(#_Linear3);"/>
                        </g>
                        <g id="Bend">
                            <g>
                                <g transform="matrix(0.413071,-0.782882,0.628709,1.3269,-340.335,8.89278)">
                                    <rect x="311" y="462.5" width="48.733" height="128.547" style="fill:rgb(255,127,0);"/>
                                </g>
                                <g transform="matrix(0.413071,-0.782882,0.712176,1.50306,-353.866,-178.054)">
                                    <rect x="311" y="462.5" width="48.733" height="128.547" style="fill:rgb(255,127,0);"/>
                                </g>
                                <g transform="matrix(0.413071,-0.782882,0.440493,0.929667,-265.09,325.505)">
                                    <rect x="311" y="462.5" width="48.733" height="128.547" style="fill:rgb(255,127,0);"/>
                                </g>
                                <g transform="matrix(0.413071,-0.782882,0.712176,1.50306,-317.845,-255.814)">
                                    <rect x="311" y="462.5" width="48.733" height="128.547" style="fill:rgb(255,127,0);"/>
                                </g>
                            </g>
                            <g transform="matrix(-1,0,0,1,511.262,0)">
                                <g transform="matrix(0.413071,-0.782882,0.628709,1.3269,-341.335,8.89278)">
                                    <rect x="311" y="462.5" width="48.733" height="128.547" style="fill:rgb(255,127,0);"/>
                                </g>
                                <g transform="matrix(0.413071,-0.782882,0.712176,1.50306,-354.866,-178.054)">
                                    <rect x="311" y="462.5" width="48.733" height="128.547" style="fill:rgb(255,127,0);"/>
                                </g>
                                <g transform="matrix(0.413071,-0.782882,0.712176,1.50306,-318.455,-255.814)">
                                    <rect x="311" y="462.5" width="48.733" height="128.547" style="fill:rgb(255,127,0);"/>
                                </g>
                                <g transform="matrix(0.413071,-0.782882,0.440493,0.929667,-266.09,325.505)">
                                    <rect x="311" y="462.5" width="48.733" height="128.547" style="fill:rgb(255,127,0);"/>
                                </g>
                            </g>
                        </g>
                    </g>
                    <g id="Nodes">
                        <g id="Nodes-Shadow" transform="matrix(1,0,0,1,0,3)">
                            <g transform="matrix(0.572661,0,0,0.908423,-29.3398,-10.0325)">
                                <rect x="376.267" y="529.722" width="55.05" height="98.278" style="fill:rgb(20,20,20);fill-opacity:0.17;"/>
                            </g>
                            <g transform="matrix(0.572661,0,0,0.908423,42.6602,124.962)">
                                <rect x="376.267" y="529.722" width="55.05" height="98.278" style="fill:rgb(20,20,20);fill-opacity:0.17;"/>
                            </g>
                            <g transform="matrix(0.414821,0.789593,-0.313137,0.658038,396.64,-254.428)">
                                <rect x="376.267" y="529.722" width="55.05" height="98.278" style="fill:rgb(20,20,20);fill-opacity:0.17;"/>
                            </g>
                            <g transform="matrix(-0.414821,0.789593,0.259052,0.544383,97.3787,-135.761)">
                                <rect x="376.267" y="529.722" width="55.05" height="98.278" style="fill:rgb(20,20,20);fill-opacity:0.17;"/>
                            </g>
                        </g>
                        <g transform="matrix(0.572661,0,0,0.908423,-29.3398,-9.50105)">
                            <rect x="376.267" y="529.722" width="55.05" height="98.278" style="fill:rgb(255,206,40);"/>
                        </g>
                        <g transform="matrix(0.572661,0,0,0.908423,42.6602,125.493)">
                            <rect x="376.267" y="529.722" width="55.05" height="98.278" style="fill:rgb(255,206,40);"/>
                        </g>
                        <g transform="matrix(0.414821,0.789593,-0.313137,0.658038,396.64,-254.428)">
                            <rect x="376.267" y="529.722" width="55.05" height="98.278" style="fill:rgb(255,206,40);"/>
                        </g>
                        <g transform="matrix(-0.414821,0.789593,0.259052,0.544383,97.3787,-135.761)">
                            <rect x="376.267" y="529.722" width="55.05" height="98.278" style="fill:rgb(255,206,40);"/>
                        </g>
                    </g>
                </g>
                <g id="Frame">
                    <g id="Frame1" serif:id="Frame" transform="matrix(1,0,0,1,0,3)">
                        <g transform="matrix(0.484505,0,0,0.969011,43.5444,43.4648)">
                            <path d="M438.5,15C670.028,15 858,202.972 858,434.5C858,666.028 670.028,854 438.5,854C206.972,854 19,666.028 19,434.5C19,202.972 206.972,15 438.5,15ZM438.5,88.271C247.411,88.271 92.271,243.411 92.271,434.5C92.271,625.589 247.411,780.729 438.5,780.729C629.589,780.729 784.729,625.589 784.729,434.5C784.729,243.411 629.589,88.271 438.5,88.271Z" style="fill:rgb(20,20,20);fill-opacity:0.17;"/>
                        </g>
                        <g transform="matrix(0.484505,0,0,0.969011,43.5444,38.4648)">
                            <path d="M438.5,15C670.028,15 858,202.972 858,434.5C858,666.028 670.028,854 438.5,854C206.972,854 19,666.028 19,434.5C19,202.972 206.972,15 438.5,15ZM438.5,88.271C247.411,88.271 92.271,243.411 92.271,434.5C92.271,625.589 247.411,780.729 438.5,780.729C629.589,780.729 784.729,625.589 784.729,434.5C784.729,243.411 629.589,88.271 438.5,88.271Z" style="fill:rgb(20,20,20);fill-opacity:0.17;"/>
                        </g>
                        <g transform="matrix(0.484505,0,0,0.969011,43.5444,41.4648)">
                            <path d="M438.5,15C670.028,15 858,202.972 858,434.5C858,666.028 670.028,854 438.5,854C206.972,854 19,666.028 19,434.5C19,202.972 206.972,15 438.5,15ZM438.5,88.271C247.411,88.271 92.271,243.411 92.271,434.5C92.271,625.589 247.411,780.729 438.5,780.729C629.589,780.729 784.729,625.589 784.729,434.5C784.729,243.411 629.589,88.271 438.5,88.271Z" style="fill:rgb(20,20,20);fill-opacity:0.17;"/>
                        </g>
                    </g>
                    <g transform="matrix(0.484505,0,0,0.969011,43.5444,43.4648)">
                        <path d="M438.5,15C670.028,15 858,202.972 858,434.5C858,666.028 670.028,854 438.5,854C206.972,854 19,666.028 19,434.5C19,202.972 206.972,15 438.5,15ZM438.5,88.271C247.411,88.271 92.271,243.411 92.271,434.5C92.271,625.589 247.411,780.729 438.5,780.729C629.589,780.729 784.729,625.589 784.729,434.5C784.729,243.411 629.589,88.271 438.5,88.271Z" style="fill:rgb(53,53,53);"/>
                    </g>
                    <g transform="matrix(0.484505,0,0,0.969011,43.5444,38.4648)">
                        <path d="M438.5,15C670.028,15 858,202.972 858,434.5C858,666.028 670.028,854 438.5,854C206.972,854 19,666.028 19,434.5C19,202.972 206.972,15 438.5,15ZM438.5,88.271C247.411,88.271 92.271,243.411 92.271,434.5C92.271,625.589 247.411,780.729 438.5,780.729C629.589,780.729 784.729,625.589 784.729,434.5C784.729,243.411 629.589,88.271 438.5,88.271Z" style="fill:rgb(151,151,151);"/>
                    </g>
                    <g transform="matrix(0.484505,0,0,0.969011,43.5444,41.4648)">
                        <path d="M438.5,15C670.028,15 858,202.972 858,434.5C858,666.028 670.028,854 438.5,854C206.972,854 19,666.028 19,434.5C19,202.972 206.972,15 438.5,15ZM438.5,88.271C247.411,88.271 92.271,243.411 92.271,434.5C92.271,625.589 247.411,780.729 438.5,780.729C629.589,780.729 784.729,625.589 784.729,434.5C784.729,243.411 629.589,88.271 438.5,88.271Z" style="fill:url(#_Radial4);"/>
                    </g>
                </g>
                <g id="Glass">
                    <g id="Glass-Shadow" transform="matrix(0.400767,0,0,0.801534,80.2638,113.39)">
                        <path d="M426.818,15.16C430.699,15.054 434.593,15 438.5,15C670.028,15 858,202.972 858,434.5C858,666.028 670.028,854 438.5,854C206.972,854 19,666.028 19,434.5C19,431.148 19.039,427.805 19.118,424.472C24.301,640.509 199.927,814.29 415.505,814.29C634.342,814.29 812.01,635.215 812.01,414.645C812.01,197.888 640.432,21.204 426.818,15.16Z" style="fill:rgb(20,20,20);fill-opacity:0.05;"/>
                    </g>
                    <g id="Glass-Highlight" transform="matrix(0.333491,0,0,0.666983,102.672,157.041)">
                        <path d="M25.149,506.399C21.107,483.035 19,459.012 19,434.5C19,202.972 206.972,15 438.5,15C504.993,15 567.893,30.504 623.78,58.09C615.436,57.74 607.048,57.563 598.619,57.563C321.512,57.563 88.722,248.809 25.149,506.399Z" style="fill:url(#_Linear5);"/>
                    </g>
                </g>
            </g>
        </g>
    </g>
    <defs>
        <linearGradient id="_Linear1" x1="0" y1="0" x2="1" y2="0" gradientUnits="userSpaceOnUse" gradientTransform="matrix(5.10631e-14,812.938,-832.848,4.97139e-14,-2376.5,-163.938)"><stop offset="0" style="stop-color:rgb(252,252,252);stop-opacity:1"/><stop offset="1" style="stop-color:rgb(235,235,235);stop-opacity:1"/></linearGradient>
        <linearGradient id="_Linear2" x1="0" y1="0" x2="1" y2="0" gradientUnits="userSpaceOnUse" gradientTransform="matrix(-8.74149e-14,121.472,-54.0489,-5.13607e-14,204,830.528)"><stop offset="0" style="stop-color:rgb(0,161,255);stop-opacity:1"/><stop offset="1" style="stop-color:rgb(0,149,208);stop-opacity:1"/></linearGradient>
        <linearGradient id="_Linear3" x1="0" y1="0" x2="1" y2="0" gradientUnits="userSpaceOnUse" gradientTransform="matrix(5.60276e-15,183,-91.5,1.12055e-14,273,457)"><stop offset="0" style="stop-color:rgb(255,127,0);stop-opacity:1"/><stop offset="1" style="stop-color:rgb(242,121,0);stop-opacity:1"/></linearGradient>
        <radialGradient id="_Radial4" cx="0" cy="0" r="1" gradientUnits="userSpaceOnUse" gradientTransform="matrix(-419.5,2.37669e-13,-2.37669e-13,-419.5,438.5,434.5)"><stop offset="0" style="stop-color:rgb(21,21,21);stop-opacity:1"/><stop offset="1" style="stop-color:rgb(87,87,87);stop-opacity:1"/></radialGradient>
        <linearGradient id="_Linear5" x1="0" y1="0" x2="1" y2="0" gradientUnits="userSpaceOnUse" gradientTransform="matrix(604.78,0,0,491.399,19,260.7)"><stop offset="0" style="stop-color:white;stop-opacity:0"/><stop offset="1" style="stop-color:rgb(235,235,235);stop-opacity:0.65"/></linearGradient>
    </defs>
</svg>
